<svg id="Layer_1" data-name="Layer 1" xmlns="http://www.w3.org/2000/svg" viewBox="0 0 1871.87 568"><defs><style>.cls-1{fill:none;stroke:#fff;stroke-miterlimit:10;stroke-width:18px;}.cls-2,.cls-3{fill:#fff;}.cls-3{font-size:457.15px;font-family:LIBRARY3AMsoft, "LIBRARY 3 AM soft";letter-spacing:0.02em;}.cls-4{fill:#6aba83;}</style></defs><path class="cls-1" d="M304.5,350.46h-.24A14.28,14.28,0,0,0,290,364.74v15.38a14.27,14.27,0,0,1-11.31,14c-18.3,3.82-52.78,16.87-56.71,61-5.15,57.81,47.79,72.86,52.29,74l.73.22,53.36,17.19s28.69,7.77,20.92,34.07c-7.05,23.88-38.5,21.46-44.23,20.81a13.63,13.63,0,0,0-1.81-.08c-4.88.1-28.19-.23-46-14.26a14.22,14.22,0,0,0-18.3.69l-15.67,14.12a14.29,14.29,0,0,0,.44,21.6c10.14,8.42,27.61,18.85,54.32,22.37a14.26,14.26,0,0,1,12.48,14.31l-.19,12.93a14.28,14.28,0,0,0,14.28,14.49h0a14.28,14.28,0,0,0,14.27-14.69l-.32-11.31a14.25,14.25,0,0,1,11.54-14.41,97.63,97.63,0,0,0,25.68-8.75c30.2-15.29,43.45-42,47.78-52.18a14.42,14.42,0,0,0,.72-2.13c2.27-8.94,4.68-24.53-1-41.71-9.11-27.7-35.37-48.05-67.78-53.84,0,0-84.25-14.14-56.78-43a9.16,9.16,0,0,0,.93-1.13c2-2.77,13.74-15.45,57.65-3.67a68.93,68.93,0,0,1,12.6,4.68,14.37,14.37,0,0,0,17.16-3l11.37-12.49a14.27,14.27,0,0,0-2.8-21.61,108,108,0,0,0-44.5-16.17,14.27,14.27,0,0,1-12.36-14.15V364.74A14.28,14.28,0,0,0,304.5,350.46Z" transform="translate(-21.12 -234.8)"/><path class="cls-2" d="M305.12,234.8c-156.85,0-284,127.16-284,284s127.15,284,284,284,284-127.15,284-284S462,234.8,305.12,234.8Zm.3,512.33C179.15,747.13,76.8,644.77,76.8,518.51S179.15,289.9,305.42,289.9,534,392.24,534,518.51,431.68,747.13,305.42,747.13Z" transform="translate(-21.12 -234.8)"/><text class="cls-3" transform="translate(584.09 456.46)">TOKS</text><path class="cls-4" d="M305.12,271.47c-136.59,0-247.33,110.74-247.33,247.34S168.53,766.13,305.12,766.13,552.45,655.4,552.45,518.81,441.72,271.47,305.12,271.47Zm0,455.18c-114.78,0-207.82-93-207.82-207.83S190.32,311,305.1,311s207.82,93,207.82,207.82S419.88,726.65,305.1,726.65Z" transform="translate(-21.12 -234.8)"/></svg>