<svg id="Layer_1" data-name="Layer 1" xmlns="http://www.w3.org/2000/svg" viewBox="0 0 1920 1080"><defs><style>.cls-1{fill:none;stroke:#fff;stroke-miterlimit:10;stroke-width:18px;}.cls-2,.cls-3{fill:#fff;}.cls-3{font-size:457.15px;font-family:LIBRARY3AMsoft, "LIBRARY 3 AM soft";letter-spacing:0.02em;}</style></defs><path class="cls-1" d="M304.5,350.46h-.24A14.28,14.28,0,0,0,290,364.74v15.38a14.27,14.27,0,0,1-11.31,14c-18.3,3.82-52.78,16.87-56.71,61-5.15,57.81,47.79,72.86,52.29,74l.73.22,53.36,17.19s28.69,7.77,20.92,34.07c-7.05,23.88-38.5,21.46-44.23,20.81a13.63,13.63,0,0,0-1.81-.08c-4.88.1-28.19-.23-46-14.26a14.22,14.22,0,0,0-18.3.69l-15.67,14.12a14.29,14.29,0,0,0,.44,21.6c10.14,8.42,27.61,18.85,54.32,22.37a14.26,14.26,0,0,1,12.48,14.31l-.19,12.93a14.28,14.28,0,0,0,14.28,14.49h0a14.28,14.28,0,0,0,14.27-14.69l-.32-11.31a14.25,14.25,0,0,1,11.54-14.41,97.63,97.63,0,0,0,25.68-8.75c30.2-15.29,43.45-42,47.78-52.18a14.42,14.42,0,0,0,.72-2.13c2.27-8.94,4.68-24.53-1-41.71-9.11-27.7-35.37-48.05-67.78-53.84,0,0-84.25-14.14-56.78-43a9.16,9.16,0,0,0,.93-1.13c2-2.77,13.74-15.45,57.65-3.67a68.93,68.93,0,0,1,12.6,4.68,14.37,14.37,0,0,0,17.16-3l11.37-12.49a14.27,14.27,0,0,0-2.8-21.61,108,108,0,0,0-44.5-16.17,14.27,14.27,0,0,1-12.36-14.15V364.74A14.28,14.28,0,0,0,304.5,350.46Z"/><path class="cls-2" d="M310.57,235c-156.85,0-284,127.15-284,284s127.15,284,284,284,284-127.15,284-284S467.43,235,310.57,235Zm.3,512.33C184.6,747.33,82.25,645,82.25,518.7S184.6,290.09,310.87,290.09,539.48,392.44,539.48,518.7,437.13,747.33,310.87,747.33Z"/><text class="cls-3" transform="translate(605.21 691.27)">TOKS</text></svg>